-
http:// www. Speed. Cd       
http:// www. Speed. Cd       the fast  and The Hottest Private Tracker on the net

Please Seed back to make the speed Faster!!!

and don't forget to visit      ...... www. Speed. Cd..........
-[img]http://img146.imageshack.us/img146/9200/sanctium.jpg[/img]

[color=blue][size=5][b]Sanctum.2011.RC.BDRip.Special.XVID.AC3.HQ.Hive-CM8[/b][/size][/color]



[b]Thx Hive

CM8 Doing It Right The First Time :D

You should wait
For Hive-CM8

Source Russian Bluray

Encode:Russian Bluray was not that sharp and dark in cavescenes.
i adjusted brightness for the movie as needed, thats why i attached 3 different samples.
one each for daylight-cave-and underearth scenes
Video is now crispy and clear
enjoy

Video: 720x400 @bitrate 2000 2pass
Audio: English DTS to AC3 5.1 @448
Sample: yes 3 included[/b]


[url]http://www.imdb.com/title/tt0881320/[/url]


General
Complete name                    : Sanctum.2011.RC.BDRip.Special.XVID.AC3.HQ.Hive-CM8.avi
Format                           : AVI
Format/Info                      : Audio Video Interleave
File size                        : 1.87 GiB
Duration                         : 1h 48mn
Overall bit rate                 : 2 457 Kbps
Writing application              : Nandub v1.0rc2
Writing library                  : Nandub build 1853/release

Video
ID                               : 0
Format                           : MPEG-4 Visual
Format profile                   : Advanced Simple@L5
Format settings, BVOP            : Yes
Format settings, QPel            : Yes
Format settings, GMC             : No warppoints
Format settings, Matrix          : Default (H.263)
Muxing mode                      : Packed bitstream
Codec ID                         : XVID
Codec ID/Hint                    : XviD
Duration                         : 1h 48mn
Bit rate                         : 1 999 Kbps
Width                            : 720 pixels
Height                           : 400 pixels
Display aspect ratio             : 16:9
Frame rate                       : 23.976 fps
Color space                      : YUV
Chroma subsampling               : 4:2:0
Bit depth                        : 8 bits
Scan type                        : Progressive
Bits/(Pixel*Frame)               : 0.290
Stream size                      : 1.52 GiB (81%)
Writing library                  : XviD 1.2.1 (UTC 2008-12-04)

Audio
ID                               : 1
Format                           : AC-3
Format/Info                      : Audio Coding 3
Mode extension                   : CM (complete main)
Codec ID                         : 2000
Duration                         : 1h 48mn
Bit rate mode                    : Constant
Bit rate                         : 448 Kbps
Channel(s)                       : 6 channels
Channel positions                : Front: L C R, Side: L R, LFE
Sampling rate                    : 48.0 KHz
Bit depth                        : 16 bits
Stream size                      : 349 MiB (18%)
Alignment                        : Split accross interleaves
Interleave, duration             : 42 ms (1.00 video frame)
Interleave, preload duration     : 500 ms


Richard Roxburgh   ...  Frank
Ioan Gruffudd  	... 	Carl
Rhys Wakefield 	... 	Josh
Alice Parkinson ... 	Victoria
Dan Wyllie 	... 	Crazy George
Christopher Baker  ... 	J.D.
Nicole Downs  	... 	Liz
Allison Cratchley ... 	Judes
Cramer Cain 	... 	Luko 


An underwater cave diving team experiences a life-threatening crisis during 
an expedition to the unexplored and least accessible cave system in the world. 
 

[img]http://img88.imageshack.us/img88/8374/25939019.png[/img]
[img]http://img853.imageshack.us/img853/1071/sasap.png[/img]
[img]http://img857.imageshack.us/img857/1016/sasasa.png[/img]
[img]http://img42.imageshack.us/img42/93/sasasasad.png[/img]
[img]http://img132.imageshack.us/img132/4357/sasasasasa.png[/img]
[img]http://img853.imageshack.us/img853/5758/sasasasasasa.png[/img]
[img]http://img217.imageshack.us/img217/3299/sasasasasasasa.png[/img]
[img]http://img849.imageshack.us/img849/7190/sasasasasasasasa.png[/img]
[img]http://img851.imageshack.us/img851/9673/sasasasasasasasasa.png[/img]
[img]http://img840.imageshack.us/img840/9607/sasasasasasasasasasa.png[/img]



ViSiON,LUSi,SANTi,MAGNET,THC,T0XiCiNK,LKRG,IMAGiNE,WBZ,FLAWL3SS,NOVA
Vik,Rapeseed,D2U,SAFC,goldadvance,MEMORY100,KaN1vE,Unevano,Pinnz,Wayne,Mr Hive
and all P2P groups 
Great Work Guys :D

CM8@hushmail.com